<?xml version="1.0" standalone="no"?><!DOCTYPE svg PUBLIC "-//W3C//DTD SVG 1.1//EN" "http://www.w3.org/Graphics/SVG/1.1/DTD/svg11.dtd"><svg t="1577197561384" class="icon" viewBox="0 0 1024 1024" version="1.1" xmlns="http://www.w3.org/2000/svg" p-id="2516" xmlns:xlink="http://www.w3.org/1999/xlink" width="60" height="60"><defs><style type="text/css">@font-face { font-weight: 400; font-style: normal; font-family: Inter-Loom; src: url("https://cdn.loom.com/assets/fonts/inter/Inter-UI-Regular.woff2") format("woff2"); }
@font-face { font-weight: 400; font-style: italic; font-family: Inter-Loom; src: url("https://cdn.loom.com/assets/fonts/inter/Inter-UI-Italic.woff2") format("woff2"); }
@font-face { font-weight: 500; font-style: normal; font-family: Inter-Loom; src: url("https://cdn.loom.com/assets/fonts/inter/Inter-UI-Medium.woff2") format("woff2"); }
@font-face { font-weight: 500; font-style: italic; font-family: Inter-Loom; src: url("https://cdn.loom.com/assets/fonts/inter/Inter-UI-MediumItalic.woff2") format("woff2"); }
@font-face { font-weight: 700; font-style: normal; font-family: Inter-Loom; src: url("https://cdn.loom.com/assets/fonts/inter/Inter-UI-Bold.woff2") format("woff2"); }
@font-face { font-weight: 700; font-style: italic; font-family: Inter-Loom; src: url("https://cdn.loom.com/assets/fonts/inter/Inter-UI-BoldItalic.woff2") format("woff2"); }
@font-face { font-weight: 900; font-style: normal; font-family: Inter-Loom; src: url("https://cdn.loom.com/assets/fonts/inter/Inter-UI-Black.woff2") format("woff2"); }
@font-face { font-weight: 900; font-style: italic; font-family: Inter-Loom; src: url("https://cdn.loom.com/assets/fonts/inter/Inter-UI-BlackItalic.woff2") format("woff2"); }
</style></defs><path d="M921.6 1024H102.4a102.51626667 102.51626667 0 0 1-102.4-102.4V170.66666667a102.51626667 102.51626667 0 0 1 102.4-102.4h68.27093333a34.13333333 34.13333333 0 0 1 0 68.26666666H102.4a34.17173333 34.17173333 0 0 0-34.13333333 34.13333334v750.93333333a34.17173333 34.17173333 0 0 0 34.13333333 34.13333333h819.2a34.17173333 34.17173333 0 0 0 34.13333333-34.13333333V170.66666667a34.17173333 34.17173333 0 0 0-34.13333333-34.13333334h-68.2656a34.13333333 34.13333333 0 0 1 0-68.26666666H921.6a102.51626667 102.51626667 0 0 1 102.4 102.4v750.93333333a102.51626667 102.51626667 0 0 1-102.4 102.4z" fill="#ffffff" p-id="2517"></path><path d="M648.53333333 136.53333333H375.46666667a34.13333333 34.13333333 0 0 1 0-68.26666666h273.06666666a34.13333333 34.13333333 0 0 1 0 68.26666666z m102.4 68.26666667a34.13333333 34.13333333 0 0 1-34.13333333-34.13333333V34.13333333a34.13333333 34.13333333 0 0 1 68.26666667 0v136.53333334a34.13333333 34.13333333 0 0 1-34.13333334 34.13333333z m-477.86666666 0a34.13333333 34.13333333 0 0 1-34.13333334-34.13333333V34.13333333a34.13333333 34.13333333 0 0 1 68.26666667 0v136.53333334a34.13333333 34.13333333 0 0 1-34.13333333 34.13333333z m716.8 136.53333333H34.13333333a34.13333333 34.13333333 0 0 1 0-68.26666666h955.73333334a34.13333333 34.13333333 0 0 1 0 68.26666666zM341.33333333 716.8a34.13333333 34.13333333 0 0 1 0-68.26666667 68.26666667 68.26666667 0 1 0-68.26666666-68.26666666 34.13333333 34.13333333 0 0 1-68.26666667 0 136.53333333 136.53333333 0 1 1 136.53333333 136.53333333z" fill="#ffffff" p-id="2518"></path><path d="M443.73333333 853.33333333H238.93333333a34.13333333 34.13333333 0 0 1-34.13333333-34.13333333v-34.13333333a136.688 136.688 0 0 1 136.53333333-136.53333334 34.13333333 34.13333333 0 0 1 0 68.26666667 68.34346667 68.34346667 0 0 0-68.26666666 68.26666667h170.66666666a34.13333333 34.13333333 0 0 1 0 68.26666666z m273.06666667 0a34.13333333 34.13333333 0 0 1-34.13333333-34.13333333v-34.13333333H546.13333333a34.13333333 34.13333333 0 0 1-34.13333333-34.13333334v-34.13333333a34.1344 34.1344 0 0 1 6.35733333-19.84l170.66666667-238.93333333A34.13333333 34.13333333 0 0 1 750.93333333 477.86666667v238.93333333h34.13333334a34.13333333 34.13333333 0 0 1 0 68.26666667h-34.13333334v34.13333333a34.13333333 34.13333333 0 0 1-34.13333333 34.13333333zM588.08 716.8H682.66666667V584.37866667z" fill="#ffffff" p-id="2519"></path></svg>