<?xml version="1.0" standalone="no"?><!DOCTYPE svg PUBLIC "-//W3C//DTD SVG 1.1//EN" "http://www.w3.org/Graphics/SVG/1.1/DTD/svg11.dtd"><svg t="1545123179540" class="icon" style="" viewBox="0 0 1024 1024" version="1.1" xmlns="http://www.w3.org/2000/svg" p-id="2027" xmlns:xlink="http://www.w3.org/1999/xlink" width="200" height="200"><defs><style type="text/css"></style></defs><path d="M738.370169 682.059164 546.130843 511.216147 738.370169 340.371084c9.711176-8.627495 10.579963-23.511483 1.979074-33.264615-8.606005-9.754155-23.511483-10.605545-33.267685-1.979074L510.700913 479.698317 314.32129 305.128419c-9.707083-8.627495-24.592095-7.776104-33.266661 1.979074-8.673543 9.753131-7.77508 24.592095 1.979074 33.264615L475.272006 511.216147 283.03268 682.059164c-9.709129 8.606005-10.607592 23.511483-1.979074 33.268708 4.672416 5.244444 11.112082 7.912204 17.623379 7.912204 5.565762 0 11.158131-1.979074 15.644305-5.934153l196.379623-174.568874 196.379623 174.568874c4.513804 4.003174 10.076496 5.934153 15.648398 5.934153 6.53074 0 12.969383-2.667759 17.619286-7.912204C748.950132 705.620789 748.128417 690.756243 738.370169 682.059164z" p-id="2028"></path><path d="M510.700913 958.824605c-119.586632 0-231.947699-46.565549-316.517817-131.089617C109.589442 743.210919 63.096549 630.801756 63.096549 511.261173c0-119.583562 46.542013-231.946676 131.087571-316.514747C278.709211 110.152772 391.115304 63.61076 510.700913 63.61076c119.583562 0 231.945653 46.542013 316.520887 131.135666C911.836943 279.314497 958.30937 391.677611 958.30937 511.261173c0 119.585609-46.564525 231.949746-131.088594 316.472791C742.692614 912.259056 630.285498 958.824605 510.700913 958.824605zM510.700913 110.726847c-220.833571 0-400.488277 179.654706-400.488277 400.4893 0 220.860177 179.654706 400.49237 400.488277 400.49237 220.857107 0 400.488277-179.632193 400.488277-400.49237C911.18919 290.381553 731.55802 110.726847 510.700913 110.726847z" p-id="2029"></path></svg>