<?xml version="1.0" standalone="no"?><!DOCTYPE svg PUBLIC "-//W3C//DTD SVG 1.1//EN" "http://www.w3.org/Graphics/SVG/1.1/DTD/svg11.dtd"><svg t="1577197632540" class="icon" viewBox="0 0 1024 1024" version="1.1" xmlns="http://www.w3.org/2000/svg" p-id="6475" xmlns:xlink="http://www.w3.org/1999/xlink" width="60" height="60"><defs><style type="text/css">@font-face { font-weight: 400; font-style: normal; font-family: Inter-Loom; src: url("https://cdn.loom.com/assets/fonts/inter/Inter-UI-Regular.woff2") format("woff2"); }
@font-face { font-weight: 400; font-style: italic; font-family: Inter-Loom; src: url("https://cdn.loom.com/assets/fonts/inter/Inter-UI-Italic.woff2") format("woff2"); }
@font-face { font-weight: 500; font-style: normal; font-family: Inter-Loom; src: url("https://cdn.loom.com/assets/fonts/inter/Inter-UI-Medium.woff2") format("woff2"); }
@font-face { font-weight: 500; font-style: italic; font-family: Inter-Loom; src: url("https://cdn.loom.com/assets/fonts/inter/Inter-UI-MediumItalic.woff2") format("woff2"); }
@font-face { font-weight: 700; font-style: normal; font-family: Inter-Loom; src: url("https://cdn.loom.com/assets/fonts/inter/Inter-UI-Bold.woff2") format("woff2"); }
@font-face { font-weight: 700; font-style: italic; font-family: Inter-Loom; src: url("https://cdn.loom.com/assets/fonts/inter/Inter-UI-BoldItalic.woff2") format("woff2"); }
@font-face { font-weight: 900; font-style: normal; font-family: Inter-Loom; src: url("https://cdn.loom.com/assets/fonts/inter/Inter-UI-Black.woff2") format("woff2"); }
@font-face { font-weight: 900; font-style: italic; font-family: Inter-Loom; src: url("https://cdn.loom.com/assets/fonts/inter/Inter-UI-BlackItalic.woff2") format("woff2"); }
</style></defs><path d="M877.704533 0H146.295467A146.295467 146.295467 0 0 0 0 146.295467v731.409066A146.295467 146.295467 0 0 0 146.295467 1024h731.409066A146.295467 146.295467 0 0 0 1024 877.704533V146.295467A146.295467 146.295467 0 0 0 877.704533 0M731.477333 651.9808a167.424 167.424 0 0 0-85.333333-23.005867c-87.552 0-158.481067 65.536-158.481067 146.295467 0 80.759467 70.929067 146.295467 158.481067 146.295467 87.517867 0 158.446933-65.536 158.446933-146.295467 0-2.798933-0.068267-5.5296-0.238933-8.2944 0.170667-1.365333 0.238933-2.833067 0.238933-4.266667V458.752l103.0144-87.586133A36.590933 36.590933 0 0 0 860.16 315.460267l-128.7168 109.499733v227.0208z m146.261334-578.833067c40.3456 0 73.147733 32.802133 73.147733 73.147734v731.409066a73.216 73.216 0 0 1-73.147733 73.147734H146.295467a73.216 73.216 0 0 1-73.147734-73.147734V146.295467c0-40.3456 32.802133-73.147733 73.147734-73.147734h731.409066zM304.810667 219.4432a36.5568 36.5568 0 1 0 0 73.1136h365.704533a36.5568 36.5568 0 1 0 0-73.1136H304.776533z m0 243.780267a36.5568 36.5568 0 1 0 0 73.147733H597.333333a36.590933 36.590933 0 0 0 0-73.147733H304.776533z m0 243.8144a36.5568 36.5568 0 1 0 0 73.147733h48.7424a36.5568 36.5568 0 1 0 0-73.147733H304.810667z m341.333333-4.9152c47.035733 0 85.333333 32.802133 85.333333 73.147733 0 40.311467-38.2976 73.147733-85.333333 73.147733-47.069867 0-85.333333-32.836267-85.333333-73.147733 0-40.3456 38.263467-73.147733 85.333333-73.147733" fill="#000000" p-id="6476"></path></svg>