<?xml version="1.0" standalone="no"?><!DOCTYPE svg PUBLIC "-//W3C//DTD SVG 1.1//EN" "http://www.w3.org/Graphics/SVG/1.1/DTD/svg11.dtd"><svg t="1578410873077" class="icon" viewBox="0 0 1024 1024" version="1.1" xmlns="http://www.w3.org/2000/svg" p-id="4801" xmlns:xlink="http://www.w3.org/1999/xlink" width="128" height="128"><defs><style type="text/css">@font-face { font-weight: 400; font-style: normal; font-family: Inter-Loom; src: url("https://cdn.loom.com/assets/fonts/inter/Inter-UI-Regular.woff2") format("woff2"); }
@font-face { font-weight: 400; font-style: italic; font-family: Inter-Loom; src: url("https://cdn.loom.com/assets/fonts/inter/Inter-UI-Italic.woff2") format("woff2"); }
@font-face { font-weight: 500; font-style: normal; font-family: Inter-Loom; src: url("https://cdn.loom.com/assets/fonts/inter/Inter-UI-Medium.woff2") format("woff2"); }
@font-face { font-weight: 500; font-style: italic; font-family: Inter-Loom; src: url("https://cdn.loom.com/assets/fonts/inter/Inter-UI-MediumItalic.woff2") format("woff2"); }
@font-face { font-weight: 700; font-style: normal; font-family: Inter-Loom; src: url("https://cdn.loom.com/assets/fonts/inter/Inter-UI-Bold.woff2") format("woff2"); }
@font-face { font-weight: 700; font-style: italic; font-family: Inter-Loom; src: url("https://cdn.loom.com/assets/fonts/inter/Inter-UI-BoldItalic.woff2") format("woff2"); }
@font-face { font-weight: 900; font-style: normal; font-family: Inter-Loom; src: url("https://cdn.loom.com/assets/fonts/inter/Inter-UI-Black.woff2") format("woff2"); }
@font-face { font-weight: 900; font-style: italic; font-family: Inter-Loom; src: url("https://cdn.loom.com/assets/fonts/inter/Inter-UI-BlackItalic.woff2") format("woff2"); }
</style></defs><path d="M695.91 301.69c-180.91 0-328.09 147.179-328.09 328.09S515 957.87 695.91 957.87 1024 810.69 1024 629.78 876.821 301.69 695.91 301.69z m0 577.438c-137.49 0-249.348-111.858-249.348-249.348S558.42 380.43 695.91 380.43s249.35 111.86 249.35 249.35S833.4 879.128 695.91 879.128zM39.371 774.805C17.622 774.805 0 792.44 0 814.176c0 21.737 17.622 39.372 39.371 39.372H343.75c-15.674-24.615-28.715-50.981-39.014-78.742H39.371z m0-629.932h841.064c21.75 0 39.371-17.635 39.371-39.371s-17.622-39.371-39.37-39.371H39.37C17.622 66.13 0 83.766 0 105.5c0 21.736 17.622 39.372 39.371 39.372z m0 472.45h239.594c0.798-26.965 3.99-53.294 9.668-78.742H39.371C17.622 538.581 0 556.216 0 577.952s17.622 39.37 39.371 39.37z m397.892-314.967H39.371C17.622 302.356 0 319.99 0 341.726s17.622 39.372 39.371 39.372h321.663c21.917-29.462 47.452-55.978 76.23-78.742zM811.395 591.28h-76.114V486.29c0-21.735-17.623-39.37-39.371-39.37s-39.372 17.635-39.372 39.37v144.36c0 21.737 17.623 39.372 39.372 39.372h115.485c21.748 0 39.37-17.635 39.37-39.371s-17.62-39.371-39.37-39.371z" fill="" p-id="4802"></path></svg>