<?xml version="1.0" standalone="no"?><!DOCTYPE svg PUBLIC "-//W3C//DTD SVG 1.1//EN" "http://www.w3.org/Graphics/SVG/1.1/DTD/svg11.dtd"><svg t="1571304595653" class="icon" viewBox="0 0 1024 1024" version="1.1" xmlns="http://www.w3.org/2000/svg" p-id="6121" xmlns:xlink="http://www.w3.org/1999/xlink" width="512" height="512"><defs><style type="text/css">@font-face { font-weight: 400; font-style: normal; font-family: Inter-Loom; src: url("https://cdn.loom.com/assets/fonts/inter/Inter-UI-Regular.woff2") format("woff2"); }
@font-face { font-weight: 400; font-style: italic; font-family: Inter-Loom; src: url("https://cdn.loom.com/assets/fonts/inter/Inter-UI-Italic.woff2") format("woff2"); }
@font-face { font-weight: 500; font-style: normal; font-family: Inter-Loom; src: url("https://cdn.loom.com/assets/fonts/inter/Inter-UI-Medium.woff2") format("woff2"); }
@font-face { font-weight: 500; font-style: italic; font-family: Inter-Loom; src: url("https://cdn.loom.com/assets/fonts/inter/Inter-UI-MediumItalic.woff2") format("woff2"); }
@font-face { font-weight: 700; font-style: normal; font-family: Inter-Loom; src: url("https://cdn.loom.com/assets/fonts/inter/Inter-UI-Bold.woff2") format("woff2"); }
@font-face { font-weight: 700; font-style: italic; font-family: Inter-Loom; src: url("https://cdn.loom.com/assets/fonts/inter/Inter-UI-BoldItalic.woff2") format("woff2"); }
@font-face { font-weight: 900; font-style: normal; font-family: Inter-Loom; src: url("https://cdn.loom.com/assets/fonts/inter/Inter-UI-Black.woff2") format("woff2"); }
@font-face { font-weight: 900; font-style: italic; font-family: Inter-Loom; src: url("https://cdn.loom.com/assets/fonts/inter/Inter-UI-BlackItalic.woff2") format("woff2"); }
</style></defs><path d="M868.266667 155.733333c-34.133333-34.133333-78.933333-53.333333-128-53.333333s-93.866667 19.2-128 53.333333l-145.066667 145.066667c-12.8 12.8-12.8 32 0 44.8 6.4 6.4 12.8 8.533333 21.333333 8.533333s17.066667-4.266667 21.333334-8.533333l145.066666-145.066667c23.466667-23.466667 53.333333-34.133333 83.2-34.133333 32 0 61.866667 12.8 83.2 34.133333 46.933333 46.933333 46.933333 121.6 0 168.533334l-172.8 172.8c-23.466667 23.466667-53.333333 34.133333-83.2 34.133333-32 0-61.866667-12.8-83.2-34.133333-6.4-6.4-12.8-8.533333-21.333333-8.533334s-17.066667 4.266667-21.333333 8.533334c-6.4 6.4-8.533333 12.8-8.533334 21.333333s4.266667 17.066667 8.533334 21.333333c34.133333 34.133333 78.933333 53.333333 128 53.333334s93.866667-19.2 128-53.333334l172.8-172.8c34.133333-34.133333 53.333333-78.933333 53.333333-128s-19.2-93.866667-53.333333-128zM567.466667 629.333333z" p-id="6122"></path><path d="M535.466667 669.866667c-8.533333 0-17.066667 4.266667-21.333334 8.533333l-145.066666 145.066667c-23.466667 23.466667-53.333333 34.133333-83.2 34.133333-32 0-61.866667-12.8-83.2-34.133333-23.466667-23.466667-34.133333-53.333333-34.133334-83.2 0-32 12.8-61.866667 34.133334-83.2l172.8-172.8c23.466667-23.466667 53.333333-34.133333 83.2-34.133334 32 0 61.866667 12.8 83.2 34.133334 6.4 6.4 12.8 8.533333 21.333333 8.533333s17.066667-4.266667 21.333333-8.533333c12.8-12.8 12.8-32 0-44.8-34.133333-34.133333-78.933333-53.333333-128-53.333334s-93.866667 19.2-128 53.333334l-172.8 172.8c-34.133333 34.133333-53.333333 78.933333-53.333333 128s19.2 93.866667 53.333333 128c34.133333 34.133333 78.933333 53.333333 128 53.333333s93.866667-19.2 128-53.333333l145.066667-145.066667c6.4-6.4 8.533333-12.8 8.533333-21.333333s-4.266667-17.066667-8.533333-21.333334c-4.266667-8.533333-12.8-10.666667-21.333333-10.666666zM283.733333 913.066667z" p-id="6123"></path></svg>