<?xml version="1.0" standalone="no"?><!DOCTYPE svg PUBLIC "-//W3C//DTD SVG 1.1//EN" "http://www.w3.org/Graphics/SVG/1.1/DTD/svg11.dtd"><svg t="1578412003951" class="icon" viewBox="0 0 1024 1024" version="1.1" xmlns="http://www.w3.org/2000/svg" p-id="15468" xmlns:xlink="http://www.w3.org/1999/xlink" width="128" height="128"><defs><style type="text/css">@font-face { font-weight: 400; font-style: normal; font-family: Inter-Loom; src: url("https://cdn.loom.com/assets/fonts/inter/Inter-UI-Regular.woff2") format("woff2"); }
@font-face { font-weight: 400; font-style: italic; font-family: Inter-Loom; src: url("https://cdn.loom.com/assets/fonts/inter/Inter-UI-Italic.woff2") format("woff2"); }
@font-face { font-weight: 500; font-style: normal; font-family: Inter-Loom; src: url("https://cdn.loom.com/assets/fonts/inter/Inter-UI-Medium.woff2") format("woff2"); }
@font-face { font-weight: 500; font-style: italic; font-family: Inter-Loom; src: url("https://cdn.loom.com/assets/fonts/inter/Inter-UI-MediumItalic.woff2") format("woff2"); }
@font-face { font-weight: 700; font-style: normal; font-family: Inter-Loom; src: url("https://cdn.loom.com/assets/fonts/inter/Inter-UI-Bold.woff2") format("woff2"); }
@font-face { font-weight: 700; font-style: italic; font-family: Inter-Loom; src: url("https://cdn.loom.com/assets/fonts/inter/Inter-UI-BoldItalic.woff2") format("woff2"); }
@font-face { font-weight: 900; font-style: normal; font-family: Inter-Loom; src: url("https://cdn.loom.com/assets/fonts/inter/Inter-UI-Black.woff2") format("woff2"); }
@font-face { font-weight: 900; font-style: italic; font-family: Inter-Loom; src: url("https://cdn.loom.com/assets/fonts/inter/Inter-UI-BlackItalic.woff2") format("woff2"); }
</style></defs><path d="M512 557.7c23.6 0 42.7-19.1 42.7-42.7V45.7C554.7 22.1 535.6 3 512 3s-42.7 19.1-42.7 42.7V515c0 23.6 19.1 42.7 42.7 42.7z" p-id="15469"></path><path d="M742.2 142.6c-20.6-11.6-46.6-4.3-58.1 16.2-11.6 20.5-4.3 46.5 16.2 58.1C821 285 896 413.2 896 551.6c0 211.8-172.2 384-384 384-211.7 0-384-172.2-384-384 0-138.4 75-266.6 195.6-334.7 20.5-11.6 27.8-37.6 16.2-58.1-11.6-20.5-37.6-27.7-58.1-16.2-147.4 83.2-239 239.9-239 409C42.7 810.4 253.2 1021 512 1021s469.3-210.5 469.3-469.3c0-169.2-91.6-325.9-239.1-409.1z" p-id="15470"></path></svg>