<?xml version="1.0" standalone="no"?><!DOCTYPE svg PUBLIC "-//W3C//DTD SVG 1.1//EN" "http://www.w3.org/Graphics/SVG/1.1/DTD/svg11.dtd"><svg t="1569507675652" class="icon" viewBox="0 0 1024 1024" version="1.1" xmlns="http://www.w3.org/2000/svg" p-id="2572" xmlns:xlink="http://www.w3.org/1999/xlink" width="512" height="512"><defs><style type="text/css"></style></defs><path d="M512 0C229.205333 0 0 229.205333 0 512s229.205333 512 512 512 512-229.205333 512-512S794.794667 0 512 0z m-40.021333 230.997333a39.978667 39.978667 0 1 1 80.042666 0v369.024a39.978667 39.978667 0 1 1-80.042666 0V230.997333zM512 794.026667a44.928 44.928 0 0 1-45.013333-44.970667c0-24.917333 20.096-45.013333 45.013333-45.013333s45.013333 20.096 45.013333 45.013333c0 24.746667-20.096 44.970667-45.013333 44.970667z" fill="#000000" opacity=".65" p-id="2573"></path></svg>