<?xml version="1.0" standalone="no"?><!DOCTYPE svg PUBLIC "-//W3C//DTD SVG 1.1//EN" "http://www.w3.org/Graphics/SVG/1.1/DTD/svg11.dtd"><svg t="1572508596791" class="icon" viewBox="0 0 1024 1024" version="1.1" xmlns="http://www.w3.org/2000/svg" p-id="15546" xmlns:xlink="http://www.w3.org/1999/xlink" width="512" height="512"><defs><style type="text/css">@font-face { font-weight: 400; font-style: normal; font-family: Inter-Loom; src: url("https://cdn.loom.com/assets/fonts/inter/Inter-UI-Regular.woff2") format("woff2"); }
@font-face { font-weight: 400; font-style: italic; font-family: Inter-Loom; src: url("https://cdn.loom.com/assets/fonts/inter/Inter-UI-Italic.woff2") format("woff2"); }
@font-face { font-weight: 500; font-style: normal; font-family: Inter-Loom; src: url("https://cdn.loom.com/assets/fonts/inter/Inter-UI-Medium.woff2") format("woff2"); }
@font-face { font-weight: 500; font-style: italic; font-family: Inter-Loom; src: url("https://cdn.loom.com/assets/fonts/inter/Inter-UI-MediumItalic.woff2") format("woff2"); }
@font-face { font-weight: 700; font-style: normal; font-family: Inter-Loom; src: url("https://cdn.loom.com/assets/fonts/inter/Inter-UI-Bold.woff2") format("woff2"); }
@font-face { font-weight: 700; font-style: italic; font-family: Inter-Loom; src: url("https://cdn.loom.com/assets/fonts/inter/Inter-UI-BoldItalic.woff2") format("woff2"); }
@font-face { font-weight: 900; font-style: normal; font-family: Inter-Loom; src: url("https://cdn.loom.com/assets/fonts/inter/Inter-UI-Black.woff2") format("woff2"); }
@font-face { font-weight: 900; font-style: italic; font-family: Inter-Loom; src: url("https://cdn.loom.com/assets/fonts/inter/Inter-UI-BlackItalic.woff2") format("woff2"); }
</style></defs><path d="M952.305633 512.001023c0 242.546082-196.618053 439.163111-439.133436 439.163111-242.545058 0-439.164135-196.61703-439.164135-439.163111 0-242.512313 196.619076-439.130366 439.164135-439.130366l0-62.749136c-277.180903 0-501.877455 224.697575-501.877455 501.878478 0 277.17988 224.699622 501.877455 501.878478 501.877455 277.181927 0 501.878478-224.697575 501.878478-501.876432L952.305633 512.001023 952.305633 512.001023zM454.920492 582.804602l62.714344 0c0-242.513336 147.898445-342.490352 390.446573-342.490352l7.607258-8.256034 11.368932-12.33391L767.61319 392.733663c-5.9055 6.321986-5.54325 16.240893 0.778736 22.147416l22.922059 21.417799c6.319939 5.9055 16.243963 5.594415 22.150486-0.727571l171.33011-183.369308 21.420869-22.925129c5.904477-6.320962 5.566786-16.266475-0.754177-22.172999l-22.923082-21.416775L799.162744 14.353916c-6.319939-5.9055-16.265452-5.566786-22.167882 0.753153l-21.420869 22.925129c-5.906523 6.319939-5.569856 16.265452 0.751107 22.171975L885.009947 180.438559C607.828021 180.438559 454.920492 305.623699 454.920492 582.804602L454.920492 582.804602z" p-id="15547"></path></svg>