<?xml version="1.0" standalone="no"?><!DOCTYPE svg PUBLIC "-//W3C//DTD SVG 1.1//EN" "http://www.w3.org/Graphics/SVG/1.1/DTD/svg11.dtd"><svg t="1578106485615" class="icon" viewBox="0 0 1024 1024" version="1.1" xmlns="http://www.w3.org/2000/svg" p-id="5006" xmlns:xlink="http://www.w3.org/1999/xlink" width="60" height="60"><defs><style type="text/css">@font-face { font-weight: 400; font-style: normal; font-family: Inter-Loom; src: url("https://cdn.loom.com/assets/fonts/inter/Inter-UI-Regular.woff2") format("woff2"); }
@font-face { font-weight: 400; font-style: italic; font-family: Inter-Loom; src: url("https://cdn.loom.com/assets/fonts/inter/Inter-UI-Italic.woff2") format("woff2"); }
@font-face { font-weight: 500; font-style: normal; font-family: Inter-Loom; src: url("https://cdn.loom.com/assets/fonts/inter/Inter-UI-Medium.woff2") format("woff2"); }
@font-face { font-weight: 500; font-style: italic; font-family: Inter-Loom; src: url("https://cdn.loom.com/assets/fonts/inter/Inter-UI-MediumItalic.woff2") format("woff2"); }
@font-face { font-weight: 700; font-style: normal; font-family: Inter-Loom; src: url("https://cdn.loom.com/assets/fonts/inter/Inter-UI-Bold.woff2") format("woff2"); }
@font-face { font-weight: 700; font-style: italic; font-family: Inter-Loom; src: url("https://cdn.loom.com/assets/fonts/inter/Inter-UI-BoldItalic.woff2") format("woff2"); }
@font-face { font-weight: 900; font-style: normal; font-family: Inter-Loom; src: url("https://cdn.loom.com/assets/fonts/inter/Inter-UI-Black.woff2") format("woff2"); }
@font-face { font-weight: 900; font-style: italic; font-family: Inter-Loom; src: url("https://cdn.loom.com/assets/fonts/inter/Inter-UI-BlackItalic.woff2") format("woff2"); }
</style></defs><path d="M836.664 959.75C691.218 839.492 610.65 839.492 494.142 913.155c-3.206 2.034-3.206 2.034-6.365 4.031-40.69 25.661-61.379 34.475-87.709 34.475-51.272 0-104.138-16.25-155.207-43.572a545.502 545.502 0 0 1-6.797-3.713L610.729 625.67c1.271 0.015 2.536 0.05 3.814 0.05 171.487 0 310.51-139.906 310.51-312.493C925.053 140.65 786.037 0.742 614.543 0.742S304.028 140.649 304.028 313.227c0 23.7 2.635 46.783 7.606 68.966a35.912 35.912 0 0 0-2.284 3.974L106.542 800.383c-15.41 31.472-10.935 72.177 9.223 101.006l-0.416 0.452-1.028 1.113c0.022 0.022 0.044 0.037 0.064 0.059l14.03 12.916c0.015 0.015 0.022 0.029 0.037 0.037l0.848-0.92c1.041 1.157 2.133 2.269 3.347 3.297 15.82 13.447 43.003 32.758 78.922 51.967 60.482 32.364 124.108 51.926 188.491 51.926 43.527 0 74.087-13.024 125.359-45.359 3.24-2.047 3.24-2.047 6.437-4.074 92.085-58.225 139.419-58.225 259.829 41.337 15.022 12.419 37.262 10.308 49.683-4.706 12.421-15.021 10.31-37.263-4.704-49.684zM614.543 71.316c132.414 0 239.943 108.212 239.943 241.911 0 133.709-107.529 241.918-239.943 241.918s-239.941-108.21-239.941-241.918c0-133.7 107.528-241.911 239.941-241.911z m-425.379 781.51c-4.52 3.377-12.092 4.158-18.6 2.492-3.161-7.787-3.72-17.607-0.638-23.901l176.508-360.495c37.449 64.353 97.105 114.029 168.405 138.339L189.164 852.826z m0 0" p-id="5007"></path></svg>