<?xml version="1.0" standalone="no"?><!DOCTYPE svg PUBLIC "-//W3C//DTD SVG 1.1//EN" "http://www.w3.org/Graphics/SVG/1.1/DTD/svg11.dtd"><svg t="1578410927009" class="icon" viewBox="0 0 1024 1024" version="1.1" xmlns="http://www.w3.org/2000/svg" p-id="6575" xmlns:xlink="http://www.w3.org/1999/xlink" width="128" height="128"><defs><style type="text/css">@font-face { font-weight: 400; font-style: normal; font-family: Inter-Loom; src: url("https://cdn.loom.com/assets/fonts/inter/Inter-UI-Regular.woff2") format("woff2"); }
@font-face { font-weight: 400; font-style: italic; font-family: Inter-Loom; src: url("https://cdn.loom.com/assets/fonts/inter/Inter-UI-Italic.woff2") format("woff2"); }
@font-face { font-weight: 500; font-style: normal; font-family: Inter-Loom; src: url("https://cdn.loom.com/assets/fonts/inter/Inter-UI-Medium.woff2") format("woff2"); }
@font-face { font-weight: 500; font-style: italic; font-family: Inter-Loom; src: url("https://cdn.loom.com/assets/fonts/inter/Inter-UI-MediumItalic.woff2") format("woff2"); }
@font-face { font-weight: 700; font-style: normal; font-family: Inter-Loom; src: url("https://cdn.loom.com/assets/fonts/inter/Inter-UI-Bold.woff2") format("woff2"); }
@font-face { font-weight: 700; font-style: italic; font-family: Inter-Loom; src: url("https://cdn.loom.com/assets/fonts/inter/Inter-UI-BoldItalic.woff2") format("woff2"); }
@font-face { font-weight: 900; font-style: normal; font-family: Inter-Loom; src: url("https://cdn.loom.com/assets/fonts/inter/Inter-UI-Black.woff2") format("woff2"); }
@font-face { font-weight: 900; font-style: italic; font-family: Inter-Loom; src: url("https://cdn.loom.com/assets/fonts/inter/Inter-UI-BlackItalic.woff2") format("woff2"); }
</style></defs><path d="M384 896l256 0 0 128-256 0 0-128ZM512 0c0 0-414.656 1.984-414.656 326.016S384 832 384 832l128 0 129.344 0c0 0 285.696-182.016 285.696-505.984S512 0 512 0zM161.344 326.016c0-136.384 104.448-202.112 196.864-233.536C349.312 103.68 340.864 116.096 333.056 130.112c-75.968 136.448-53.696 348.544 63.424 629.248C334.144 706.304 161.344 554.496 161.344 326.016zM512 768 469.12 768C318.464 422.784 341.312 248.192 388.16 162.688 429.376 87.424 494.272 68.416 512 64.576 528.896 68.224 593.536 86.72 635.072 161.28c47.488 85.44 71.04 260.096-80.128 606.72L512 768zM626.752 761.28c117.824-281.664 140.288-494.4 64.192-631.104-7.872-14.144-16.448-26.752-25.344-38.016 92.736 31.296 198.144 97.024 198.144 233.92C863.68 557.44 686.848 710.08 626.752 761.28z" p-id="6576"></path></svg>