<?xml version="1.0" standalone="no"?><!DOCTYPE svg PUBLIC "-//W3C//DTD SVG 1.1//EN" "http://www.w3.org/Graphics/SVG/1.1/DTD/svg11.dtd"><svg t="1578412216662" class="icon" viewBox="0 0 1024 1024" version="1.1" xmlns="http://www.w3.org/2000/svg" p-id="17656" xmlns:xlink="http://www.w3.org/1999/xlink" width="128" height="128"><defs><style type="text/css">@font-face { font-weight: 400; font-style: normal; font-family: Inter-Loom; src: url("https://cdn.loom.com/assets/fonts/inter/Inter-UI-Regular.woff2") format("woff2"); }
@font-face { font-weight: 400; font-style: italic; font-family: Inter-Loom; src: url("https://cdn.loom.com/assets/fonts/inter/Inter-UI-Italic.woff2") format("woff2"); }
@font-face { font-weight: 500; font-style: normal; font-family: Inter-Loom; src: url("https://cdn.loom.com/assets/fonts/inter/Inter-UI-Medium.woff2") format("woff2"); }
@font-face { font-weight: 500; font-style: italic; font-family: Inter-Loom; src: url("https://cdn.loom.com/assets/fonts/inter/Inter-UI-MediumItalic.woff2") format("woff2"); }
@font-face { font-weight: 700; font-style: normal; font-family: Inter-Loom; src: url("https://cdn.loom.com/assets/fonts/inter/Inter-UI-Bold.woff2") format("woff2"); }
@font-face { font-weight: 700; font-style: italic; font-family: Inter-Loom; src: url("https://cdn.loom.com/assets/fonts/inter/Inter-UI-BoldItalic.woff2") format("woff2"); }
@font-face { font-weight: 900; font-style: normal; font-family: Inter-Loom; src: url("https://cdn.loom.com/assets/fonts/inter/Inter-UI-Black.woff2") format("woff2"); }
@font-face { font-weight: 900; font-style: italic; font-family: Inter-Loom; src: url("https://cdn.loom.com/assets/fonts/inter/Inter-UI-BlackItalic.woff2") format("woff2"); }
</style></defs><path d="M512 614.4C342.6304 614.4 204.8 476.637867 204.8 307.268267s137.8304-307.2 307.2-307.2S819.2 137.898667 819.2 307.268267 681.3696 614.4 512 614.4zM512 68.334933c-131.754667 0-238.933333 107.178667-238.933333 238.933333s107.178667 238.933333 238.933333 238.933333 238.933333-107.178667 238.933333-238.933333S643.754667 68.334933 512 68.334933z" p-id="17657"></path><path d="M921.6 1024c-18.8416 0-34.133333-15.223467-34.133333-34.133333C887.466667 744.2432 757.623467 614.4 512 614.4 266.376533 614.4 136.533333 744.2432 136.533333 989.866667 136.533333 1008.776533 121.2416 1024 102.4 1024S68.266667 1008.776533 68.266667 989.866667c0-282.0096 161.723733-443.665067 443.733333-443.665067S955.733333 707.857067 955.733333 989.866667C955.733333 1008.776533 940.4416 1024 921.6 1024z" p-id="17658"></path></svg>